<svg width="227" height="40" viewBox="0 0 227 40" fill="none" xmlns="http://www.w3.org/2000/svg">
<path d="M0 0H227V40H0V0Z" fill="#4353FF"/>
<path d="M29.3477 17.5098C29.3477 17.5098 27.8844 21.9133 27.7744 22.2871C27.7321 21.9133 26.6664 14 26.6664 14C24.1711 14 22.843 15.698 22.141 17.5098C22.141 17.5098 20.3647 21.9296 20.2209 22.3033C20.2124 21.954 19.9502 17.5586 19.9502 17.5586C19.7979 15.3487 17.7002 14.0081 16 14.0081L18.047 26C20.6607 25.9919 22.0649 24.2938 22.8008 22.4902C22.8008 22.4902 24.3656 18.5904 24.4333 18.4116C24.4502 18.5823 25.5583 26 25.5583 26C28.172 26 29.5846 24.4076 30.3459 22.6689L34 14C31.4117 14 30.0498 15.698 29.3477 17.5098Z" fill="white"/>
<path d="M53.74 23.642C51.92 23.642 50.59 22.228 50.59 20.044V19.932C50.59 17.776 51.752 16.334 53.712 16.334C55.672 16.334 56.82 17.86 56.82 19.918V20.03C56.82 22.2 55.63 23.642 53.74 23.642ZM53.712 25.14C56.75 25.14 58.752 22.942 58.752 20.016V19.904C58.752 16.964 56.694 14.85 53.712 14.85C50.744 14.85 48.644 17.02 48.644 19.946V20.058C48.644 22.942 50.646 25.14 53.712 25.14Z" fill="white"/>
<path d="M60.7727 25H62.4667V18.952H65.0427V25H66.7367V18.952H68.4027V17.678H66.7367V16.628C66.7367 15.998 67.0027 15.55 67.6887 15.55C67.9827 15.55 68.1927 15.578 68.4027 15.662V14.346C68.1367 14.262 67.8847 14.22 67.4787 14.22C65.9247 14.22 65.0427 15.088 65.0427 16.698V17.678H62.4667V16.712C62.4667 16.082 62.7467 15.634 63.4327 15.634C63.7407 15.634 63.9927 15.704 64.1887 15.774V14.458C63.8807 14.36 63.6287 14.318 63.2227 14.318C61.6547 14.318 60.7727 15.172 60.7727 16.796V17.678H59.7787V18.952H60.7727V25Z" fill="white"/>
<path d="M69.6809 25H71.3749V17.678H69.6809V25ZM70.5069 16.474C71.0669 16.474 71.5149 16.054 71.5149 15.508C71.5149 14.948 71.0669 14.528 70.5069 14.528C69.9469 14.528 69.4989 14.948 69.4989 15.508C69.4989 16.054 69.9469 16.474 70.5069 16.474Z" fill="white"/>
<path d="M76.6457 25.14C78.6337 25.14 79.9077 23.95 80.0337 22.27H78.4797C78.3817 23.306 77.6117 23.838 76.7157 23.838C75.4697 23.838 74.6857 22.998 74.6857 21.402V21.29C74.6857 19.778 75.5117 18.882 76.6737 18.882C77.5697 18.882 78.2137 19.288 78.3537 20.268H79.9917C79.7957 18.252 78.2697 17.524 76.6457 17.524C74.6017 17.524 72.9497 18.994 72.9497 21.318V21.43C72.9497 23.768 74.5457 25.14 76.6457 25.14Z" fill="white"/>
<path d="M81.5344 25H83.2284V17.678H81.5344V25ZM82.3604 16.474C82.9204 16.474 83.3684 16.054 83.3684 15.508C83.3684 14.948 82.9204 14.528 82.3604 14.528C81.8004 14.528 81.3524 14.948 81.3524 15.508C81.3524 16.054 81.8004 16.474 82.3604 16.474Z" fill="white"/>
<path d="M87.2112 25.14C88.3312 25.14 88.9752 24.734 89.4512 24.104V25H91.1172V20.198C91.1172 18.196 89.8292 17.524 88.1912 17.524C86.5532 17.524 85.1952 18.238 85.0552 19.946H86.6932C86.7772 19.218 87.2112 18.798 88.0932 18.798C89.0872 18.798 89.4232 19.288 89.4232 20.268V20.646H88.5132C86.4132 20.646 84.7612 21.262 84.7612 22.97C84.7612 24.496 85.8672 25.14 87.2112 25.14ZM87.6172 23.922C86.7772 23.922 86.4412 23.516 86.4412 22.9C86.4412 22.004 87.2672 21.71 88.5552 21.71H89.4232V22.438C89.4232 23.376 88.6532 23.922 87.6172 23.922Z" fill="white"/>
<path d="M93.1008 25H94.7948V14.29H93.1008V25Z" fill="white"/>
<path d="M102.044 25H103.822L105.852 17.706L107.826 25H109.688L112.194 14.99H110.458L108.666 22.382L106.678 14.99H105.138L103.192 22.34L101.456 14.99H99.5515L102.044 25Z" fill="white"/>
<path d="M116.158 25.14C118.034 25.14 119.28 24.3 119.518 22.76H117.88C117.754 23.474 117.222 23.88 116.2 23.88C114.94 23.88 114.24 23.096 114.184 21.71H119.546V21.22C119.546 18.602 117.908 17.524 116.088 17.524C114.002 17.524 112.448 19.036 112.448 21.304V21.416C112.448 23.726 114.002 25.14 116.158 25.14ZM114.212 20.576C114.38 19.442 115.066 18.756 116.088 18.756C117.138 18.756 117.782 19.316 117.866 20.576H114.212Z" fill="white"/>
<path d="M125.147 25.14C127.037 25.14 128.395 23.712 128.395 21.36V21.248C128.395 18.882 126.981 17.524 125.147 17.524C124.069 17.524 123.159 18.154 122.753 18.854V14.29H121.059V25H122.753V23.824C123.145 24.566 123.985 25.14 125.147 25.14ZM124.727 23.796C123.495 23.796 122.697 23.026 122.697 21.388V21.276C122.697 19.652 123.537 18.854 124.713 18.854C125.819 18.854 126.659 19.652 126.659 21.276V21.388C126.659 22.956 125.973 23.796 124.727 23.796Z" fill="white"/>
<path d="M130.212 25H131.906V18.952H133.572V17.678H131.906V16.628C131.906 15.998 132.186 15.55 132.858 15.55C133.166 15.55 133.376 15.578 133.572 15.662V14.346C133.306 14.262 133.068 14.22 132.648 14.22C131.094 14.22 130.212 15.088 130.212 16.698V17.678H129.218V18.952H130.212V25Z" fill="white"/>
<path d="M134.841 25H136.535V14.29H134.841V25Z" fill="white"/>
<path d="M141.876 23.824C140.588 23.824 139.846 22.886 139.846 21.388V21.276C139.846 19.764 140.616 18.854 141.876 18.854C143.136 18.854 143.892 19.778 143.892 21.29V21.388C143.892 22.886 143.136 23.824 141.876 23.824ZM141.862 25.14C144.018 25.14 145.628 23.656 145.628 21.374V21.262C145.628 19.022 144.018 17.524 141.876 17.524C139.72 17.524 138.11 19.036 138.11 21.304V21.416C138.11 23.642 139.706 25.14 141.862 25.14Z" fill="white"/>
<path d="M148.465 25H150.201L151.685 20.072L153.043 25H154.765L157.061 17.678H155.409L153.883 22.97L152.455 17.678H151.041L149.487 22.97L148.031 17.678H146.225L148.465 25Z" fill="white"/>
<path d="M161.832 25H163.694V21.192H165.094C167.236 21.192 168.762 20.254 168.762 18.14V18.084C168.762 15.984 167.292 14.99 165.052 14.99H161.832V25ZM163.694 19.848V16.432H165.052C166.242 16.432 166.942 16.894 166.942 18.084V18.14C166.942 19.246 166.284 19.848 165.052 19.848H163.694Z" fill="white"/>
<path d="M172.004 25.14C173.124 25.14 173.768 24.734 174.244 24.104V25H175.91V20.198C175.91 18.196 174.622 17.524 172.984 17.524C171.346 17.524 169.988 18.238 169.848 19.946H171.486C171.57 19.218 172.004 18.798 172.886 18.798C173.88 18.798 174.216 19.288 174.216 20.268V20.646H173.306C171.206 20.646 169.554 21.262 169.554 22.97C169.554 24.496 170.66 25.14 172.004 25.14ZM172.41 23.922C171.57 23.922 171.234 23.516 171.234 22.9C171.234 22.004 172.06 21.71 173.348 21.71H174.216V22.438C174.216 23.376 173.446 23.922 172.41 23.922Z" fill="white"/>
<path d="M177.852 25H179.546V21.192C179.546 19.638 180.442 19.162 181.926 19.148V17.566C180.694 17.58 180.008 18.126 179.546 19.05V17.678H177.852V25Z" fill="white"/>
<path d="M185.977 25.126C186.495 25.126 186.859 25.042 187.125 24.944V23.6C186.887 23.698 186.635 23.74 186.299 23.74C185.767 23.74 185.459 23.446 185.459 22.802V18.952H187.069V17.678H185.459V16.068H183.765V17.678H182.785V18.952H183.765V22.956C183.765 24.342 184.521 25.126 185.977 25.126Z" fill="white"/>
<path d="M188.653 25H190.347V20.688C190.347 19.526 191.117 18.938 192.069 18.938C193.077 18.938 193.525 19.442 193.525 20.548V25H195.219V20.394C195.219 18.378 194.183 17.524 192.713 17.524C191.509 17.524 190.697 18.126 190.347 18.84V17.678H188.653V25Z" fill="white"/>
<path d="M200.39 25.14C202.266 25.14 203.512 24.3 203.75 22.76H202.112C201.986 23.474 201.454 23.88 200.432 23.88C199.172 23.88 198.472 23.096 198.416 21.71H203.778V21.22C203.778 18.602 202.14 17.524 200.32 17.524C198.234 17.524 196.68 19.036 196.68 21.304V21.416C196.68 23.726 198.234 25.14 200.39 25.14ZM198.444 20.576C198.612 19.442 199.298 18.756 200.32 18.756C201.37 18.756 202.014 19.316 202.098 20.576H198.444Z" fill="white"/>
<path d="M205.291 25H206.985V21.192C206.985 19.638 207.881 19.162 209.365 19.148V17.566C208.133 17.58 207.447 18.126 206.985 19.05V17.678H205.291V25Z" fill="white"/>
</svg>
