<svg width="434" height="106" viewBox="0 0 434 106" fill="none" xmlns="http://www.w3.org/2000/svg">
<path fill-rule="evenodd" clip-rule="evenodd" d="M137.596 66.4071L132.562 71.4411H109.07L104.036 66.4071V54.6611H87.2561V73.1191L102.358 88.2201H139.274L154.376 73.1191V54.6611H137.596V66.4071Z" fill="white"/>
<path fill-rule="evenodd" clip-rule="evenodd" d="M305.394 14.3892L288.614 31.1692H305.394V14.3892Z" fill="white"/>
<path fill-rule="evenodd" clip-rule="evenodd" d="M288.614 68.0851H305.394V34.5251H288.614V68.0851Z" fill="white"/>
<path fill-rule="evenodd" clip-rule="evenodd" d="M325.53 17.7451L308.751 0.965088V68.0851H325.53V17.7451Z" fill="white"/>
<mask id="mask0_309_203" style="mask-type:alpha" maskUnits="userSpaceOnUse" x="0" y="0" width="417" height="105">
<path d="M0.0600586 0.965088H416.141V105H0.0600586V0.965088Z" fill="white"/>
</mask>
<g mask="url(#mask0_309_203)">
<path fill-rule="evenodd" clip-rule="evenodd" d="M345.666 17.7451L328.887 0.965088V68.0851H345.666V17.7451Z" fill="white"/>
<path fill-rule="evenodd" clip-rule="evenodd" d="M401.04 34.5252H364.124L349.022 49.6262V68.0852H365.803V56.3382L370.836 51.3042H394.328L399.362 56.3382V71.4402H262.605L285.259 48.7872V34.5232H26.849L0 61.3722L26.849 88.2182H67.119L83.9 105V54.6592H67.119V71.4402H34.398L24.33 61.3722L34.398 51.3042H257.572L221.495 88.2212H390.972L399.362 79.8312V88.2202L416.141 105.001V49.6262L401.04 34.5252Z" fill="white"/>
</g>
<path fill-rule="evenodd" clip-rule="evenodd" d="M201.359 79.8322L174.513 54.6592H157.732V105L174.513 88.2212V79.8302L201.359 105H201.361L218.14 88.2202V54.6622H201.359V79.8322Z" fill="white"/>
<path fill-rule="evenodd" clip-rule="evenodd" d="M424.587 34.5232H427.264L428.136 37.4092C428.219 37.6852 428.303 37.9972 428.385 38.3412C428.469 38.6892 428.545 39.0132 428.613 39.3202C428.696 39.6792 428.779 40.0402 428.862 40.3962H428.904C428.973 40.0402 429.049 39.6792 429.133 39.3202C429.201 39.0132 429.281 38.6892 429.371 38.3412C429.461 37.9972 429.548 37.6852 429.631 37.4092L430.502 34.5232H433.222V42.4522H431.457V39.8362C431.457 39.5042 431.457 39.1392 431.457 38.7372C431.457 38.3362 431.464 37.9572 431.477 37.5962C431.491 37.1812 431.506 36.7732 431.519 36.3712H431.457C431.359 36.7462 431.264 37.1182 431.167 37.4932C431.084 37.8092 430.986 38.1662 430.876 38.5592C430.766 38.9552 430.654 39.3252 430.544 39.6712L429.692 42.4522H428.053L427.182 39.6712C427.07 39.3122 426.964 38.9372 426.859 38.5492C426.756 38.1652 426.662 37.8092 426.58 37.4932C426.482 37.1182 426.386 36.7462 426.288 36.3712H426.248C426.248 36.7732 426.254 37.1812 426.268 37.5962C426.282 37.9572 426.292 38.3362 426.299 38.7372C426.307 39.1392 426.309 39.5042 426.309 39.8362V42.4522H424.587V34.5232ZM416.45 34.5232H423.196V36.1422H420.809V42.4522H418.858V36.1422H416.45V34.5232Z" fill="white"/>
</svg>
