<svg width="19" height="19" viewBox="0 0 19 19" fill="none" xmlns="http://www.w3.org/2000/svg">
<g clip-path="url(#clip0_25_1652)">
<path d="M17.6561 -0.000488281H2.18285C1.44164 -0.000488281 0.842285 0.584678 0.842285 1.30816V16.8452C0.842285 17.5687 1.44164 18.1574 2.18285 18.1574H17.6561C18.3973 18.1574 19.0002 17.5687 19.0002 16.8488V1.30816C19.0002 0.584678 18.3973 -0.000488281 17.6561 -0.000488281ZM6.22936 15.4727H3.53405V6.80517H6.22936V15.4727ZM4.88171 5.6242C4.01637 5.6242 3.31772 4.92555 3.31772 4.06376C3.31772 3.20197 4.01637 2.50331 4.88171 2.50331C5.7435 2.50331 6.44215 3.20197 6.44215 4.06376C6.44215 4.922 5.7435 5.6242 4.88171 5.6242ZM16.3155 15.4727H13.6237V11.2595C13.6237 10.2559 13.606 8.96142 12.2229 8.96142C10.822 8.96142 10.6092 10.0573 10.6092 11.1886V15.4727H7.92103V6.80517H10.5029V7.98969H10.5383C10.8965 7.30877 11.776 6.58884 13.0847 6.58884C15.8119 6.58884 16.3155 8.38335 16.3155 10.7169V15.4727Z" fill="white"/>
</g>
<defs>
<clipPath id="clip0_25_1652">
<rect width="18.1579" height="18.1579" fill="white" transform="translate(0.842041)"/>
</clipPath>
</defs>
</svg>
