<svg width="160" height="160" viewBox="0 0 160 160" fill="none" xmlns="http://www.w3.org/2000/svg">
<path d="M141.064 85.7079C141.18 84.6744 141.529 83.7576 142.112 82.9577C142.694 82.1676 143.434 81.5766 144.334 81.1844C145.243 80.7934 146.219 80.6565 147.263 80.7736C148.306 80.8908 149.223 81.2402 150.013 81.822C150.813 82.4048 151.409 83.146 151.801 84.0453C152.192 84.9546 152.33 85.926 152.214 86.9595C152.034 88.5595 151.305 89.8109 150.026 90.7139L149.011 89.4075C149.489 89.0889 149.858 88.7127 150.118 88.279C150.387 87.8564 150.554 87.3569 150.619 86.7805C150.699 86.065 150.609 85.3907 150.348 84.7576C150.086 84.1345 149.671 83.615 149.104 83.1991C148.545 82.7943 147.869 82.5473 147.074 82.458C146.279 82.3688 145.559 82.4591 144.915 82.7289C144.28 83.0098 143.765 83.425 143.371 83.9745C142.977 84.534 142.739 85.1714 142.659 85.8869C142.525 87.0794 142.908 88.1489 143.808 89.0952L142.51 90.1721C141.96 89.5972 141.558 88.9231 141.303 88.1498C141.046 87.3864 140.967 86.5725 141.064 85.7079Z" fill="white"/>
<path d="M150.255 97.9238L149.061 101.51C148.859 102.117 148.541 102.628 148.108 103.043C147.675 103.457 147.174 103.728 146.605 103.854C146.032 103.991 145.447 103.959 144.85 103.76C144.166 103.533 143.633 103.108 143.251 102.485C142.864 101.872 142.692 101.203 142.733 100.479L142.666 100.441L137.705 101.904L137.62 101.875L138.241 100.011L143.121 98.6476L143.519 97.4521L139.534 96.1255L140.065 94.5315L150.255 97.9238ZM144.35 99.8946C144.189 100.378 144.205 100.837 144.398 101.27C144.591 101.703 144.925 101.999 145.399 102.157C145.665 102.245 145.943 102.264 146.234 102.213C146.525 102.163 146.789 102.034 147.026 101.829C147.269 101.636 147.448 101.369 147.562 101.027L148.23 99.0203L144.999 97.9448L144.35 99.8946Z" fill="white"/>
<path d="M145.383 111.356L142.147 117.022L140.754 116.227L143.156 112.019L140.577 110.546L138.412 114.337L137.032 113.548L139.196 109.758L136.617 108.285L134.215 112.493L132.821 111.697L136.056 106.03L145.383 111.356Z" fill="white"/>
<path d="M135.932 125.945L134.661 127.384L123.941 123.297L125.162 121.914L127.865 123.001L130.735 119.753L129.323 117.204L130.555 115.81L135.932 125.945ZM129.411 123.607L132.56 124.868L133.772 125.378L133.831 125.31L133.176 124.171L131.537 121.201L129.411 123.607Z" fill="white"/>
<path d="M124.784 134.837L127.17 133.019L128.143 134.296L122.032 138.949L121.06 137.672L123.447 135.855L117.913 128.587L119.249 127.569L124.784 134.837Z" fill="white"/>
<path d="M116.982 142.289L115.508 143.095L110.355 133.672L111.829 132.866L116.982 142.289Z" fill="white"/>
<path d="M109.919 146.29L108.189 146.888L103.604 140.965L102.838 139.944L102.753 139.974L102.782 141.249L102.731 148.773L100.987 149.376L101.18 137.946L102.839 137.373L109.919 146.29Z" fill="white"/>
<path d="M94.4281 151.173L87.959 152.026L87.7494 150.434L92.5529 149.801L92.1649 146.857L87.8373 147.427L87.6296 145.851L91.9572 145.28L91.5693 142.336L86.7658 142.969L86.5561 141.378L93.0252 140.525L94.4281 151.173Z" fill="white"/>
<path d="M72.2175 152.329L68.8286 151.682C67.7383 151.475 66.8325 151.073 66.1114 150.477C65.3804 149.88 64.8756 149.137 64.597 148.249C64.3067 147.369 64.26 146.413 64.4567 145.382C64.6534 144.35 65.0496 143.474 65.6453 142.753C66.2293 142.04 66.971 141.54 67.8707 141.253C68.7604 140.965 69.7505 140.925 70.8409 141.133L74.2298 141.779L72.2175 152.329ZM70.5844 142.718C69.4056 142.493 68.4253 142.642 67.6435 143.165C66.85 143.695 66.3428 144.54 66.1217 145.699C65.9025 146.849 66.0641 147.816 66.6065 148.602C67.1391 149.385 67.9948 149.89 69.1735 150.114L70.868 150.438L72.2788 143.041L70.5844 142.718Z" fill="white"/>
<path d="M56.5688 148.696L54.9981 148.1L58.8089 138.058L60.3796 138.655L56.5688 148.696Z" fill="white"/>
<path d="M48.1863 145.408L44.9107 143.521C44.3561 143.202 43.9191 142.789 43.5995 142.281C43.28 141.774 43.115 141.229 43.1046 140.646C43.0855 140.058 43.2332 139.491 43.5476 138.945C43.9069 138.321 44.43 137.884 45.1167 137.633C45.7948 137.378 46.4846 137.342 47.186 137.527L47.2364 137.469L46.7944 132.316L46.8393 132.238L48.5421 133.219L48.9026 138.273L49.9945 138.902L52.0906 135.263L53.5464 136.101L48.1863 145.408ZM47.4351 139.228C46.9932 138.974 46.5407 138.898 46.0777 139C45.6147 139.103 45.2585 139.371 45.0089 139.804C44.8692 140.047 44.7951 140.316 44.7866 140.611C44.7782 140.906 44.851 141.19 45.0051 141.464C45.1456 141.741 45.3718 141.969 45.6838 142.149L47.5165 143.205L49.2159 140.254L47.4351 139.228Z" fill="white"/>
<path d="M36.0296 137.967L31.124 133.665L32.1823 132.458L35.8249 135.653L37.7832 133.42L34.5015 130.542L35.5499 129.346L38.8316 132.225L40.7899 129.992L37.1474 126.797L38.2056 125.59L43.1113 129.893L36.0296 137.967Z" fill="white"/>
<path d="M31.2151 117.66C31.836 118.494 32.2067 119.403 32.3271 120.385C32.4416 121.36 32.3041 122.297 31.9148 123.198C31.5175 124.104 30.8977 124.871 30.0554 125.498C29.2131 126.125 28.3048 126.496 27.3303 126.61C26.3479 126.73 25.4064 126.596 24.5058 126.207C23.5992 125.809 22.8355 125.194 22.2145 124.359C21.2532 123.068 20.9314 121.656 21.249 120.123L22.8831 120.384C22.751 120.943 22.7381 121.47 22.8443 121.965C22.9365 122.457 23.1557 122.936 23.502 123.401C23.9319 123.979 24.4584 124.41 25.0813 124.694C25.6983 124.97 26.356 125.066 27.0543 124.983C27.7386 124.898 28.4016 124.616 29.0434 124.138C29.6851 123.661 30.1492 123.103 30.4355 122.466C30.7078 121.827 30.8002 121.173 30.7127 120.502C30.6192 119.824 30.3575 119.196 29.9276 118.618C29.2111 117.656 28.201 117.136 26.8972 117.059L27.1104 115.386C27.9042 115.431 28.6584 115.649 29.373 116.039C30.0816 116.422 30.6956 116.962 31.2151 117.66Z" fill="white"/>
<path d="M16.699 112.301L17.9698 115.019L16.5159 115.699L13.2627 108.742L14.7166 108.062L15.9874 110.779L24.2623 106.91L24.974 108.432L16.699 112.301Z" fill="white"/>
<path d="M20.2662 95.3939C20.496 96.4082 20.4659 97.384 20.1758 98.3213C19.8738 99.251 19.3576 100.05 18.6271 100.718C17.8944 101.376 17.0258 101.819 16.0213 102.046C15.0168 102.274 14.047 102.248 13.1119 101.967C12.1649 101.68 11.3547 101.181 10.6815 100.473C10.006 99.754 9.55336 98.8876 9.32354 97.8733C9.09372 96.859 9.12872 95.8822 9.42852 94.9427C9.72833 94.0032 10.2446 93.2044 10.9772 92.5462C11.6979 91.8805 12.5606 91.4338 13.5651 91.2062C14.5696 90.9786 15.5454 91.0087 16.4924 91.2966C17.4372 91.5747 18.2474 92.0729 18.9229 92.7914C19.5886 93.5121 20.0363 94.3796 20.2662 95.3939ZM18.7008 95.7486C18.5439 95.0562 18.2345 94.4598 17.7725 93.9595C17.3106 93.4592 16.7494 93.1096 16.0891 92.9106C15.4169 92.704 14.7004 92.6869 13.9397 92.8593C13.1789 93.0317 12.5447 93.3548 12.0369 93.8288C11.5171 94.2951 11.1566 94.8536 10.9553 95.5042C10.7541 96.1547 10.732 96.8262 10.8889 97.5187C11.0458 98.2111 11.3552 98.8075 11.8172 99.3078C12.2769 99.7983 12.8429 100.147 13.5152 100.353C14.1755 100.552 14.886 100.566 15.6467 100.393C16.4075 100.221 17.0477 99.9016 17.5675 99.4352C18.0753 98.9613 18.4309 98.4039 18.6344 97.7631C18.8356 97.1126 18.8577 96.4411 18.7008 95.7486Z" fill="white"/>
<path d="M7.4153 85.8863L7.38612 82.1064C7.38118 81.4664 7.51666 80.8804 7.79256 80.3482C8.06846 79.8161 8.45524 79.3981 8.95291 79.0942C9.45051 78.7804 10.0143 78.621 10.6443 78.6162C11.3643 78.6106 12.006 78.8407 12.5697 79.3063C13.1332 79.762 13.5127 80.3391 13.7081 81.0376L13.7832 81.052L18.0052 78.0643L18.0952 78.0636L18.1104 80.0286L13.9324 82.8959L13.9421 84.1559L18.142 84.1234L18.155 85.8034L7.4153 85.8863ZM12.3663 82.113C12.3624 81.603 12.1991 81.1742 11.8764 80.8267C11.5537 80.4792 11.1423 80.3074 10.6424 80.3112C10.3624 80.3134 10.0929 80.3855 9.834 80.5275C9.57509 80.6695 9.36668 80.8761 9.20877 81.1473C9.04078 81.4086 8.95818 81.7193 8.96096 82.0793L8.97729 84.1942L12.3822 84.1679L12.3663 82.113Z" fill="white"/>
<path d="M9.88769 60.8053L10.4666 58.9747L21.9234 58.3656L21.3671 60.1247L18.4559 60.2267L17.1488 64.36L19.4721 66.1172L18.9113 67.8907L9.88769 60.8053ZM16.7966 60.2998L13.4066 60.4235L12.0929 60.4486L12.0657 60.5344L13.1262 61.3102L15.8288 63.3605L16.7966 60.2998Z" fill="white"/>
<path d="M13.3386 49.8374L14.3081 48.2501L21.0852 50.4207L21.9726 50.7518L22.0196 50.675L21.3432 49.9983L16.5599 44.5633L17.4355 43.1296L24.408 44.9802L25.3062 45.2651L25.3531 45.1883L24.6739 44.5449L19.6404 39.5197L20.6099 37.9323L28.3056 45.937L27.3752 47.4604L20.2697 45.511L19.3254 45.2154L19.2863 45.2794L19.9726 45.9974L24.9046 51.5055L23.9976 52.9905L13.3386 49.8374Z" fill="white"/>
<path d="M26.7273 30.6193L28.0899 29.2666L38.5201 34.0457L37.2107 35.3455L34.5849 34.0844L31.5084 37.1386L32.7505 39.7735L31.4305 41.084L26.7273 30.6193ZM33.0813 33.3789L30.0213 31.9147L28.8461 31.327L28.7822 31.3904L29.3613 32.5699L30.8032 35.6405L33.0813 33.3789Z" fill="white"/>
<path d="M35.7732 22.2182L38.9398 20.1541C39.476 19.8046 40.0425 19.6024 40.6394 19.5476C41.2363 19.4927 41.7969 19.5928 42.3213 19.8479C42.854 20.0975 43.2924 20.4861 43.6364 21.0139C44.0296 21.6171 44.1822 22.2816 44.0943 23.0074C44.0147 23.7277 43.7336 24.3586 43.2509 24.9L43.2793 24.971L48.0729 26.9136L48.122 26.989L46.4759 28.062L41.8074 26.0916L40.7518 26.7796L43.0453 30.2981L41.6379 31.2155L35.7732 22.2182ZM41.6215 24.3506C42.0488 24.0721 42.3216 23.7032 42.4401 23.244C42.5586 22.7848 42.4813 22.3458 42.2083 21.9269C42.0554 21.6924 41.8493 21.5044 41.59 21.363C41.3308 21.2217 41.0443 21.1577 40.7308 21.1711C40.4201 21.1707 40.114 21.2687 39.8124 21.4653L38.0406 22.6203L39.9 25.4728L41.6215 24.3506Z" fill="white"/>
<path d="M47.8203 14.6562L51.0413 13.4199C52.0775 13.0222 53.0591 12.8865 53.9859 13.0128C54.922 13.1355 55.7424 13.5008 56.447 14.1087C57.1574 14.7037 57.7007 15.4913 58.0769 16.4716C58.4531 17.4518 58.5781 18.4054 58.4518 19.3322C58.3313 20.2461 57.9642 21.0618 57.3505 21.7793C56.7462 22.4932 55.9259 23.0491 54.8896 23.4468L51.6687 24.683L47.8203 14.6562ZM54.2725 21.9645C55.3928 21.5345 56.1475 20.8914 56.5365 20.0351C56.9313 19.166 56.9173 18.1806 56.4944 17.0789C56.0752 15.9866 55.4281 15.2495 54.5532 14.8677C53.6876 14.4822 52.6947 14.5045 51.5743 14.9345L49.9639 15.5526L52.662 22.5826L54.2725 21.9645Z" fill="white"/>
<path d="M70.0259 7.65124L71.8858 7.6297L73.6457 14.5248L73.8365 15.4526L73.9265 15.4516L74.1407 14.519L76.2055 7.57967L77.8854 7.56022L80.0203 14.451L80.2559 15.3633L80.3459 15.3622L80.5303 14.4451L82.1151 7.51123L83.975 7.4897L81.2795 18.2616L79.4946 18.2823L77.3728 11.2264L77.1217 10.2692L77.0467 10.2701L76.8028 11.233L74.7549 18.3372L73.0151 18.3573L70.0259 7.65124Z" fill="white"/>
<path d="M90.5918 8.27646L92.242 8.59123L90.2298 19.141L88.5796 18.8263L90.5918 8.27646Z" fill="white"/>
<path d="M99.4807 9.93771L101.346 10.6456L103.061 19.6552L103.145 19.6871L103.795 17.7199L105.834 12.3487L107.39 12.9395L103.58 22.9807L101.939 22.358L100.143 12.8845L100.059 12.8526L99.4088 14.8198L97.2267 20.5697L95.67 19.9789L99.4807 9.93771Z" fill="white"/>
<path d="M114.989 16.3146L116.644 17.4284L116.264 26.5918L116.338 26.6421L117.419 24.8745L120.627 20.1082L122.008 21.0377L116.012 29.9481L114.556 28.9683L114.964 19.3348L114.889 19.2846L113.808 21.0522L110.375 26.1545L108.993 25.225L114.989 16.3146Z" fill="white"/>
<path d="M127.837 25.6475L129.05 26.8092L121.623 34.5673L120.41 33.4055L127.837 25.6475Z" fill="white"/>
<path d="M134.316 31.799L135.501 33.4037L132.067 41.9078L132.12 41.9802L133.732 40.678L138.353 37.2646L139.342 38.6039L130.703 44.985L129.661 43.5733L133.278 34.6355L133.225 34.5631L131.613 35.8654L126.666 39.5193L125.677 38.1801L134.316 31.799Z" fill="white"/>
<path d="M135.79 54.4352C135.392 53.4958 135.252 52.5346 135.368 51.5516C135.484 50.5687 135.837 49.6814 136.425 48.8898C137.022 48.0943 137.804 47.492 138.771 47.083C139.738 46.6739 140.711 46.5341 141.688 46.6635C142.675 46.789 143.562 47.1523 144.348 47.7535C145.134 48.3547 145.726 49.125 146.123 50.0644C146.439 50.8104 146.6 51.5623 146.605 52.32C146.611 53.0776 146.466 53.7742 146.17 54.4096L144.636 53.7878C144.859 53.3135 144.974 52.8145 144.98 52.2906C144.987 51.7667 144.875 51.2331 144.645 50.6897C144.373 50.045 143.967 49.5106 143.43 49.0865C142.892 48.6625 142.272 48.4035 141.57 48.3095C140.872 48.2248 140.159 48.3363 139.432 48.6441C138.704 48.9518 138.129 49.3903 137.708 49.9595C137.286 50.5287 137.04 51.1538 136.97 51.835C136.9 52.5162 137.001 53.1791 137.274 53.8238C137.519 54.404 137.813 54.8551 138.156 55.1772C138.498 55.4992 138.883 55.7544 139.31 55.9429C139.589 56.0637 139.91 56.1289 140.272 56.1385C140.648 56.1534 141.027 56.1126 141.409 56.0159L139.984 52.645L141.365 52.0607L143.405 56.8822C143.115 57.0699 142.859 57.2105 142.638 57.304C142.012 57.5689 141.366 57.7227 140.7 57.7655C140.047 57.8136 139.421 57.72 138.822 57.4848C137.439 56.9622 136.429 55.9456 135.79 54.4352Z" fill="white"/>
</svg>
